Coordinates
version=1
nRows=13
nColumns=30
inDegrees=yes

Units are S.I. units (second, meters, Newtons, ...)
Angles are in degrees.

endheader
time	floatyaw	floatroll	floatpitch	floatx	floaty	floatz	pro_sup_l	deviation_l	flexion_l	cmc_flexion_l	cmc_abduction_l	mp_flexion_l	ip_flexion_l	2mcp_flexion_l	2mcp_abduction_l	2pm_flexion_l	2md_flexion_l	3mcp_flexion_l	3mcp_abduction_l	3pm_flexion_l	3md_flexion_l	4mcp_flexion_l	4mcp_abduction_l	4pm_flexion_l	4md_flexion_l	5mcp_flexion_l	5mcp_abduction_l	5pm_flexion_l	5md_flexion_l
0.005000	0.749225	-1.746491	98.520729	0.058593	-0.145332	0.076354	104.975864	9.339894	-2.480873	9.661874	11.236060	-32.412527	-51.961634	62.749180	5.677561	67.396694	48.393658	65.622717	4.822916	77.912724	51.251474	73.328789	-5.434361	93.089435	57.652076	80.586294	-4.632178	95.872257	38.794954
0.015000	0.749225	-1.746491	98.520729	0.058939	-0.145201	0.076050	104.660936	9.407667	-3.048113	9.228995	10.596401	-32.848536	-52.648584	64.241309	5.723101	67.027142	48.863548	67.211603	4.855725	77.940115	51.613972	74.673254	-5.437740	93.389244	57.478610	81.593365	-4.683321	96.588058	38.164217
0.025000	0.749225	-1.746491	98.520729	0.059273	-0.144901	0.075516	104.123374	9.524164	-3.664337	8.834806	10.319206	-33.199180	-53.261290	65.599924	5.778791	66.589721	49.225020	68.606615	4.893612	77.884744	52.004400	75.787732	-5.441304	93.592967	57.303710	82.338253	-4.747778	97.244564	37.572283
0.035000	0.749225	-1.746491	98.520729	0.059619	-0.144499	0.074771	103.363894	9.710276	-4.280683	8.458663	10.407567	-33.487318	-53.814335	66.817172	5.848688	66.143118	49.503345	69.790823	4.930562	77.818300	52.424445	76.694607	-5.451267	93.747545	57.159572	82.883047	-4.816750	97.827264	37.060869
0.045000	0.749225	-1.746491	98.520729	0.059988	-0.144088	0.073837	102.381497	9.974831	-4.827045	8.092615	10.785662	-33.734747	-54.309826	67.885919	5.930745	65.700672	49.734851	70.759722	4.962973	77.774917	52.852285	77.415487	-5.471208	93.875176	57.059961	83.273176	-4.884194	98.313201	36.664047
0.055000	0.749225	-1.746491	98.520729	0.060374	-0.143764	0.072747	101.176299	10.305885	-5.238974	7.744227	11.320251	-33.954475	-54.737445	68.798747	6.017215	65.246188	49.960782	71.523955	4.990090	77.751764	53.258023	77.972594	-5.501460	93.978207	57.004063	83.538658	-4.947026	98.683030	36.397551
0.065000	0.749225	-1.746491	98.520729	0.060760	-0.143581	0.071549	99.761772	10.668426	-5.484361	7.433277	11.863448	-34.149150	-55.083946	69.550322	6.097828	64.763040	50.217616	72.109201	5.013378	77.725362	53.620693	78.390581	-5.539523	94.051797	56.984965	83.701609	-5.004416	98.932747	36.254134
0.075000	0.749225	-1.746491	98.520729	0.061118	-0.143527	0.070313	98.176438	11.010673	-5.576522	7.182757	12.299271	-34.314941	-55.344136	70.141057	6.164216	64.258744	50.526137	72.550765	5.035309	77.674588	53.938378	78.696482	-5.581185	94.097044	56.997552	83.783535	-5.056830	99.079327	36.207977
0.085000	0.749225	-1.746491	98.520729	0.061420	-0.143513	0.069116	96.485379	11.277928	-5.568506	7.007269	12.573027	-34.447269	-55.525341	70.580219	6.213422	63.772161	50.883739	72.884626	5.058150	77.599209	54.227195	78.917590	-5.621872	94.128281	57.041739	83.808383	-5.105326	99.157828	36.226007
0.095000	0.749225	-1.746491	98.520729	0.061650	-0.143403	0.068033	94.771121	11.429438	-5.532830	6.904185	12.690697	-34.544635	-55.643126	70.886186	6.248906	63.363444	51.264494	73.139224	5.083188	77.526152	54.511155	79.078346	-5.657861	94.171526	57.120522	83.801167	-5.151261	99.212388	36.280335
0.105000	0.749225	-1.746491	98.520729	0.061800	-0.143067	0.067119	93.120754	11.452258	-5.535934	6.852664	12.692283	-34.608925	-55.712147	71.082156	6.278687	63.095170	51.628097	73.331439	5.110578	77.501498	54.808832	79.197592	-5.687127	94.254922	57.235276	83.784311	-5.196147	99.285463	36.355945
0.115000	0.749225	-1.746491	98.520729	0.061880	-0.142435	0.066399	91.614580	11.367152	-5.616756	6.821887	12.617507	-34.643118	-55.738632	71.189231	6.311367	63.011875	51.934002	73.467700	5.139633	77.571254	55.122575	79.287135	-5.709626	94.395267	57.381226	83.773977	-5.241317	99.407816	36.450607
0.125000	0.749225	-1.746491	98.520729	0.061905	-0.141528	0.065867	90.315487	11.224190	-5.776066	6.784837	12.483542	-34.648922	-55.719462	71.221687	6.351601	63.121597	52.154694	73.548978	5.169247	77.757915	55.433898	79.352124	-5.726855	94.586809	57.545045	83.777600	-5.287299	99.590013	36.568000
